<svg width="83" height="34" viewBox="0 0 83 34" fill="none" xmlns="http://www.w3.org/2000/svg">
<path fill-rule="evenodd" clip-rule="evenodd" d="M0.157701 13.6895L2.31269 11.2443L9.828 20.3465L0.157701 13.6895ZM2.31269 25.7901V22.4883L13.8754 24.1304L2.31269 25.7901ZM11.8781 33.2862L9.70576 30.841L19.3768 24.184L11.8781 33.2862V33.2862ZM23.8966 32.3583L20.6731 32.0192L23.4936 20.4714L23.8966 32.3583ZM32.2358 23.4699L29.6081 25.3974L24.1244 14.9033L32.2358 23.4702V23.4699ZM32.5867 11.1727L31.9031 14.4033L20.9357 10.334L32.5863 11.1731L32.5867 11.1727ZM24.7722 1.80266L26.3839 4.67619L15.5569 9.12059L24.7722 1.80266V1.80266ZM12.8066 0.178159L15.8897 1.19577L10.7738 11.8868L12.8066 0.178159ZM2.83824 7.10337L5.79909 5.76469L9.02252 17.2052L2.83824 7.10337ZM0 19.0615L1.31405 16.045L11.23 22.3453L0 19.0619V19.0615ZM5.72891 29.8774L4.73027 26.7357L16.2232 24.6656L5.72891 29.8774V29.8774ZM17.0992 34L14.2783 32.3583L21.479 22.9702L17.0988 34H17.0992ZM28.259 29.3242L25.088 30.02L24.2644 18.1511L28.259 29.3242V29.3242ZM33.4797 18.2404L31.5703 20.9178L23.1609 12.6543L33.4797 18.2404V18.2404ZM30.0812 6.46085L30.414 9.7451L18.746 9.33438L30.0812 6.46085V6.46085ZM19.8145 0L22.2147 2.213L13.2801 9.87L19.8145 0ZM7.93635 2.213H11.1771L9.54806 13.9926L7.93635 2.213ZM40.176 22.2591V11.56H43.9747C47.0608 11.56 49.0793 13.6998 49.0793 16.8646C49.0793 20.0293 47.0759 22.2591 43.9446 22.2591H40.1756H40.176ZM52.6849 22.44C51.1712 22.44 50.1624 21.5511 50.1624 20.2101C50.1624 19.4864 50.474 18.8837 51.0675 18.5071C51.6017 18.1906 52.314 17.9948 53.4858 17.8289L55.0591 17.6331V17.437C55.0591 16.3067 54.629 15.8247 53.679 15.8247C52.8037 15.8247 52.2842 16.2922 52.225 17.1508H50.3997C50.5186 15.5385 51.7647 14.5439 53.679 14.5439C55.8751 14.5439 56.8545 15.4933 56.8545 17.678V19.9235C56.8545 20.9484 56.9288 21.7319 57.0771 22.2591H55.2964C55.2307 21.8301 55.1911 21.3974 55.1779 20.9634C54.8218 21.8829 53.8869 22.44 52.6849 22.44V22.44ZM58.0271 16.0355V14.7247H59.3626V12.8259L61.143 12.1025V14.7247H62.9531V16.0355H61.143V19.6369C61.143 20.4511 61.4844 20.8277 62.2261 20.8277C62.5231 20.8277 62.7158 20.7975 62.9531 20.7373V22.2591C62.5231 22.3496 62.1963 22.3948 61.7364 22.3948C59.9557 22.3948 59.3622 21.4454 59.3622 19.9235V16.0355H58.0267H58.0271ZM64.4966 13.4738V11.5903H66.4256V13.4738H64.4966ZM64.5856 22.2591V14.7247H66.3664V22.2591H64.5856V22.2591ZM71.7376 22.44C69.5268 22.44 68.1022 20.8883 68.1022 18.4921C68.1022 16.0355 69.497 14.5439 71.7527 14.5439C73.5927 14.5439 74.7947 15.5385 75.0173 17.2565L73.281 17.5427C73.1622 16.5178 72.5835 15.9604 71.7078 15.9604C70.6099 15.9604 69.9274 16.8944 69.9274 18.4469C69.9274 20.0741 70.5952 21.0086 71.7376 21.0086C72.628 21.0086 73.1773 20.4511 73.3403 19.396L75.0173 19.7427C74.7501 21.4155 73.5036 22.44 71.7376 22.44V22.44ZM78.6078 22.44C77.0949 22.44 76.0857 21.5511 76.0857 20.2101C76.0857 19.4864 76.3973 18.8837 76.9908 18.5071C77.525 18.1906 78.2373 17.9948 79.4091 17.8289L80.9823 17.6331V17.437C80.9823 16.3067 80.5522 15.8247 79.6023 15.8247C78.727 15.8247 78.2075 16.2922 78.1483 17.1508H76.3226C76.4415 15.5385 77.6876 14.5439 79.6019 14.5439C81.798 14.5439 82.7774 15.4933 82.7774 17.678V19.9235C82.7774 20.9484 82.8517 21.7319 83 22.2591H81.2193C81.1536 21.8301 81.114 21.3974 81.1008 20.9634C80.7447 21.8829 79.8098 22.44 78.6078 22.44V22.44ZM79.1869 21.1591C80.2848 21.1591 81.0269 20.3756 81.0269 19.1699V18.6879L79.3499 18.9438C78.3708 19.1097 77.9257 19.4714 77.9257 20.1193C77.9257 20.7523 78.4003 21.1591 79.1869 21.1591ZM53.2636 21.1591C54.3615 21.1591 55.1036 20.3756 55.1036 19.1699V18.6879L53.427 18.9438C52.4476 19.1097 52.0024 19.4714 52.0024 20.1193C52.0024 20.7523 52.477 21.1591 53.2636 21.1591ZM42.0899 20.7373H43.8857C45.9332 20.7373 47.0759 18.9891 47.0759 16.8646C47.0759 14.6945 45.9781 13.0822 43.9151 13.0822H42.0899V20.7373V20.7373Z" fill="white"/>
</svg>
