<svg width="83" height="35" viewBox="0 0 83 35" fill="none" xmlns="http://www.w3.org/2000/svg">
<path fill-rule="evenodd" clip-rule="evenodd" d="M0.157701 14.0921L2.31269 11.575L9.828 20.9449L0.157701 14.0921ZM2.31269 26.5487V23.1497L13.8754 24.8401L2.31269 26.5487ZM11.8781 34.2652L9.70576 31.7481L19.3768 24.8953L11.8781 34.2652V34.2652ZM23.8966 33.31L20.6731 32.9609L23.4936 21.0735L23.8966 33.31ZM32.2358 24.1601L29.6081 26.1444L24.1244 15.3416L32.2358 24.1605V24.1601ZM32.5867 11.5013L31.9031 14.8269L20.9357 10.6379L32.5863 11.5017L32.5867 11.5013ZM24.7722 1.85568L26.3839 4.81373L15.5569 9.38884L24.7722 1.85568V1.85568ZM12.8066 0.183399L15.8897 1.23094L10.7738 12.2365L12.8066 0.183399ZM2.83824 7.31229L5.79909 5.93424L9.02252 17.7112L2.83824 7.31229ZM0 19.6221L1.31405 16.5169L11.23 23.0026L0 19.6225V19.6221ZM5.72891 30.7562L4.73027 27.5221L16.2232 25.3911L5.72891 30.7562V30.7562ZM17.0992 35L14.2783 33.31L21.479 23.6458L17.0988 35H17.0992ZM28.259 30.1867L25.088 30.9029L24.2644 18.685L28.259 30.1867V30.1867ZM33.4797 18.7769L31.5703 21.533L23.1609 13.0264L33.4797 18.7769V18.7769ZM30.0812 6.65087L30.414 10.0317L18.746 9.60892L30.0812 6.65087V6.65087ZM19.8145 0L22.2147 2.27809L13.2801 10.1603L19.8145 0ZM7.93635 2.27809H11.1771L9.54806 14.4041L7.93635 2.27809ZM40.176 22.9138V11.9H43.9747C47.0608 11.9 49.0793 14.1028 49.0793 17.3606C49.0793 20.6184 47.0759 22.9138 43.9446 22.9138H40.1756H40.176ZM52.6849 23.1C51.1712 23.1 50.1624 22.185 50.1624 20.8045C50.1624 20.0595 50.474 19.4391 51.0675 19.0514C51.6017 18.7256 52.314 18.5241 53.4858 18.3533L55.0591 18.1518V17.9498C55.0591 16.7863 54.629 16.2902 53.679 16.2902C52.8037 16.2902 52.2842 16.7713 52.225 17.6552H50.3997C50.5186 15.9955 51.7647 14.9717 53.679 14.9717C55.8751 14.9717 56.8545 15.949 56.8545 18.1979V20.5095C56.8545 21.5646 56.9288 22.3711 57.0771 22.9138H55.2964C55.2307 22.4722 55.1911 22.0267 55.1779 21.5799C54.8218 22.5265 53.8869 23.1 52.6849 23.1V23.1ZM58.0271 16.5071V15.1578H59.3626V13.2031L61.143 12.4585V15.1578H62.9531V16.5071H61.143V20.2145C61.143 21.0526 61.4844 21.4403 62.2261 21.4403C62.5231 21.4403 62.7158 21.4092 62.9531 21.3472V22.9138C62.5231 23.0069 62.1963 23.0534 61.7364 23.0534C59.9557 23.0534 59.3622 22.0761 59.3622 20.5095V16.5071H58.0267H58.0271ZM64.4966 13.8701V11.9312H66.4256V13.8701H64.4966ZM64.5856 22.9138V15.1578H66.3664V22.9138H64.5856V22.9138ZM71.7376 23.1C69.5268 23.1 68.1022 21.5026 68.1022 19.036C68.1022 16.5071 69.497 14.9717 71.7527 14.9717C73.5927 14.9717 74.7947 15.9955 75.0173 17.7641L73.281 18.0587C73.1622 17.0036 72.5835 16.4298 71.7078 16.4298C70.6099 16.4298 69.9274 17.3913 69.9274 18.9895C69.9274 20.6645 70.5952 21.6265 71.7376 21.6265C72.628 21.6265 73.1773 21.0526 73.3403 19.9664L75.0173 20.3234C74.7501 22.0453 73.5036 23.1 71.7376 23.1V23.1ZM78.6078 23.1C77.0949 23.1 76.0857 22.185 76.0857 20.8045C76.0857 20.0595 76.3973 19.4391 76.9908 19.0514C77.525 18.7256 78.2373 18.5241 79.4091 18.3533L80.9823 18.1518V17.9498C80.9823 16.7863 80.5522 16.2902 79.6023 16.2902C78.727 16.2902 78.2075 16.7713 78.1483 17.6552H76.3226C76.4415 15.9955 77.6876 14.9717 79.6019 14.9717C81.798 14.9717 82.7774 15.949 82.7774 18.1979V20.5095C82.7774 21.5646 82.8517 22.3711 83 22.9138H81.2193C81.1536 22.4722 81.114 22.0267 81.1008 21.5799C80.7447 22.5265 79.8098 23.1 78.6078 23.1V23.1ZM79.1869 21.7815C80.2848 21.7815 81.0269 20.9749 81.0269 19.7337V19.2376L79.3499 19.501C78.3708 19.6718 77.9257 20.0441 77.9257 20.7111C77.9257 21.3626 78.4003 21.7815 79.1869 21.7815ZM53.2636 21.7815C54.3615 21.7815 55.1036 20.9749 55.1036 19.7337V19.2376L53.427 19.501C52.4476 19.6718 52.0024 20.0441 52.0024 20.7111C52.0024 21.3626 52.477 21.7815 53.2636 21.7815ZM42.0899 21.3472H43.8857C45.9332 21.3472 47.0759 19.5476 47.0759 17.3606C47.0759 15.1267 45.9781 13.467 43.9151 13.467H42.0899V21.3472V21.3472Z" fill="black"/>
</svg>
